<svg xmlns="http://www.w3.org/2000/svg" width="80" height="44" fill="none"><path fill="#BE008D" d="M77.075 42.59c0-.508.31-.93.903-1.185l.479-.197v1.749c0 .084 0 .197.028.253-.338.141-.507.198-.677.198-.48-.028-.733-.367-.733-.818m1.354-1.89v.17l-1.552.676c-.733.31-1.1.705-1.1 1.27 0 .705.508 1.156 1.185 1.156.339 0 .564-.056 1.58-.508.112.367.394.508.846.508.254 0 .48-.085.62-.17-.14-.112-.254-.31-.254-.648v-2.257c0-1.015-.535-1.55-1.466-1.55-.508 0-.931.14-1.834.535v.339c.452-.198.79-.339 1.157-.339.536-.028.818.254.818.818m-4.034-3.61-.93.902.93.931.903-.93zm-.592 3.892v2.06c0 .62.226.958.79.958.31 0 .592-.113.733-.282-.14-.113-.254-.226-.254-.846v-3.526l-1.495.62c.17.311.226.48.226 1.016m-3.864 2.144v-2.962c.395-.169.536-.197.705-.197.48 0 .903.508.903 1.664 0 1.185-.395 2.059-1.044 2.059-.31-.057-.564-.226-.564-.564m-1.27-4.203v5.049l1.1-.31c.311.197.508.31.96.31.846 0 2.228-.62 2.228-2.736 0-1.297-.677-1.918-1.382-1.918-.367 0-.564.056-1.58.508v-2.567l-1.494.62c.112.367.169.537.169 1.044m-3.722 3.667c0-.508.31-.93.902-1.185l.48-.197v1.749c0 .084 0 .197.028.253-.338.141-.508.198-.677.198-.48-.028-.733-.367-.733-.818m1.382-1.89v.17l-1.551.676c-.734.31-1.1.705-1.1 1.27 0 .705.507 1.156 1.184 1.156.339 0 .564-.056 1.58-.508.113.367.395.508.846.508.254 0 .48-.085.62-.17-.14-.112-.254-.31-.254-.648v-2.257c0-1.015-.535-1.55-1.466-1.55-.508 0-.931.14-1.834.535v.339c.452-.198.79-.339 1.157-.339.536-.028.818.254.818.818m-5.782 3.187h1.777c-.198-.338-.226-.507-.226-1.015v-1.749c.339-.508.818-.705 1.664-.705v-1.072c-.987 0-1.354.536-1.664 1.41v-1.41l-1.495.62c.17.34.226.508.226 1.016v1.89c-.057.508-.113.677-.282 1.015m-4.908-2.312c0-.029.028-.057.028-.085l1.016-2.228.846 2.313zm-1.467 2.312h1.383c-.198-.451-.254-1.24-.057-2.002h2.115l.395 1.072c.198.507.141.705-.028.93h2.087c-.197-.169-.395-.451-.564-.93l-1.946-5.134-1.241.536c.085.508-.056 1.1-.62 2.313zm-5.725-2.256c0-1.551.48-2.03.959-2.03.48 0 .959.479.959 2.03 0 1.58-.48 2.03-.96 2.03-.507 0-.958-.45-.958-2.03m.93 2.34c1.185 0 2.313-.76 2.313-2.34s-1.128-2.313-2.312-2.313c-1.185 0-2.313.762-2.313 2.313.028 1.58 1.156 2.34 2.313 2.34m-5.161-3.863v2.425c0 .875.423 1.439 1.27 1.439.45 0 .789-.113 1.41-.395v-.254c-.226.085-.395.141-.593.141-.564 0-.79-.367-.79-.874v-2.82h1.213l.085-.34h-1.298v-.958l-1.494.62c.14.339.197.508.197 1.016M61.732 34.269c0 1.325.874 2.228 2.2 2.228 1.071 0 1.833-.564 2.115-1.551l-.141-.029c-.198.452-.705.706-1.382.706q-.93 0-1.27-.762l.875-.367c1.297-.536 1.749-.93 1.749-1.466 0-.706-.677-1.185-1.693-1.185-1.438-.028-2.453.987-2.453 2.426m1.974.056-.564.226a3.2 3.2 0 0 1-.085-.79c0-1.015.395-1.636.987-1.636.452 0 .677.339.677.874 0 .621-.31 1.016-1.015 1.326m-4.062-1.27v2.455c0 .62.226.959.79.959.31 0 .592-.113.733-.282-.14-.113-.253-.226-.253-.846v-2.313c0-.564-.282-1.213-1.213-1.213-.339 0-.564.056-1.664.507-.198-.253-.536-.507-1.129-.507-.338 0-.564.056-1.579.48v-.48l-1.495.62c.17.339.226.508.226 1.016v1.89c0 .507-.057.676-.226 1.015h1.777c-.197-.339-.226-.508-.226-1.016v-2.735c.48-.198.62-.254.875-.254.395 0 .62.225.62.705v2.313c0 .507-.056.677-.225 1.015h1.777c-.198-.338-.226-.508-.226-1.015v-2.736c.48-.198.62-.254.874-.254.339-.028.564.226.564.677m-9.674 1.073c0-1.552.48-2.031.959-2.031.48 0 .959.48.959 2.03 0 1.58-.48 2.031-.959 2.031-.48.029-.959-.45-.959-2.03m.959 2.34c1.185 0 2.313-.76 2.313-2.34s-1.128-2.313-2.313-2.313-2.313.761-2.313 2.313c0 1.58 1.157 2.34 2.313 2.34m-4.682 0c1.015 0 1.72-.535 1.974-1.55l-.14-.029c-.198.451-.65.705-1.242.705-.902 0-1.41-.648-1.41-1.89 0-.987.508-1.607 1.27-1.607.479 0 .845.282 1.1.874h.112v-.959c-.508-.14-.874-.225-1.27-.225-1.55 0-2.566.93-2.566 2.369.028 1.41.874 2.313 2.172 2.313m-4.315-5.048v4.09c0 .62.225.959.79.959.31 0 .592-.113.733-.282-.141-.113-.254-.226-.254-.846v-5.585l-1.495.62c.17.367.226.536.226 1.044m-5.021 2.849c0 1.325.874 2.228 2.2 2.228 1.072 0 1.833-.564 2.115-1.551l-.14-.029c-.198.452-.706.706-1.383.706q-.93 0-1.269-.762l.875-.367c1.297-.536 1.748-.93 1.748-1.466 0-.706-.677-1.185-1.692-1.185-1.439-.028-2.454.987-2.454 2.426m1.974.056-.564.226a3.2 3.2 0 0 1-.084-.79c0-1.015.395-1.636.987-1.636.451 0 .677.339.677.874 0 .621-.31 1.016-1.016 1.326m-9.476-3.018 1.748 5.049h.733l1.213-3.723 1.241 3.723h.734l2.115-6.092h-1.24c.366.45.422 1.24.027 2.397l-.761 2.2-1.495-4.682-1.27.536c.367 1.015.31 1.861.029 2.68l-.48 1.466-1.212-3.723c-.113-.395-.085-.649.14-.846H28.76c.282.14.451.48.648 1.015"/><path fill="#78006E" d="M44.357 17.516c0 .084-.028.197-.028.282s-.028.197-.028.282c-.029.395-.057.79-.198 1.184a2.2 2.2 0 0 0-.14.536q-.044.255-.17.592s0 .029-.028.085c-.029.057-.029.17-.057.282 0 .028 0 .057-.028.057v.056c-.028.056-.028.113-.056.17q-.128.422-.339 1.015a8.4 8.4 0 0 1-.705 1.607c.508-.084.903-.282 1.41-.733.254-.367.508-.733.762-1.156-.141-.198-.395-3.639-.395-4.26M40.86 11.197a4.6 4.6 0 0 0-.988-.48c-1.495-.028-2.933 1.777-3.807 2.877.676.113 1.41.592 1.748 1.015.198.226.339.48.536.706.113.112.141.253.198.394.14.339 0 .677.084 1.016.028.113.028.226.028.366.029.113.057.367.057.452l.084-.057c.931-.62 1.862-1.354 2.736-2.03v-.057c.085-.507.141-1.043.226-1.551.084-.48.028-.96-.085-1.382a1.9 1.9 0 0 0-.818-1.27M64.862 12.185l-.141-.084c-.113-.085-.452-.17-.705-.226-.734.141-1.975 2.03-2.144 2.595.451.197.874.508 1.128.846.057.085.141.17.198.254.112.17.225.31.338.451s.17.254.226.395v.028c.084.198.084.423.056.62 0 .142 0 .283.028.396.029.112.029.197.029.31a.46.46 0 0 1 .112.197c0 .057 0 .141-.028.198q.042.17.17.846c.028.17.056.338.112.508.847-2.257 1.58-4.485 1.777-6.572a2 2 0 0 0-.366-.31 2.5 2.5 0 0 0-.79-.452M73.747 18.813c-.057.169-.085.338-.113.507-.028.141-.141.677-.141.677-.028.141-.085.254-.113.395-.084.31-.17.62-.225.959a9 9 0 0 1-.085.395c-.028.113-.141.846-.339.93.198-.028 1.072-.225 1.383-.592.028-.056.14-.31.225-.536 0-.028.028-.084.028-.084l.028-.057c-.14-.395-.507-1.777-.648-2.594M51.408 15.117c-.056.903-.141 1.805-.254 2.172-.085.254-.113.48-.17.649-.027.225-.084.423-.168.733v.085c0 .282.028 1.043-.31 2.03-.17.903-.537 1.75-1.072 2.2.253.085.733.057 1.325-.507.141-.254.254-.48.339-.593.197-.282.31-.423.733-1.24l.028-.085c-.225-2.144-.395-4.146-.451-5.444M23.823 10.718c-2.059-.762-3.948-1.044-6.035-1.382-2.906 1.326-5.81 2.651-8.039 3.949 1.044-.057 3.187-.029 4.23-.085.424.056.875.113 1.326.113.424.14.706.085 1.072.056.987.057 1.862.367 2.905.395.395-.028.734.254 1.1.339.17-.057.62.14.79.14.226-.056.423.198.677.198.395.085.733.197 1.1.395.338.113.705.113.987.367.96.648 1.918 1.41 2.482 2.482.31.648.536 1.156.536 1.748 1.072-.987 1.692-1.777 2.172-2.538.226-1.015.254-1.974.028-2.539-1.184-1.635-3.47-2.764-5.33-3.638"/><path fill="#BE008D" d="M49.434 23.015h-.028c-.113-.056-.226-.113-.339-.197 0 0-.028-.028-.056-.028-.367-.254-.592-1.834-.62-1.918-.029-.085-.029-.198-.057-.282-.113-.48-.254-1.1-.423-1.72-.028-.057-.028-.114-.056-.17a.9.9 0 0 1-.057-.226 8 8 0 0 0-.113-1.664l-.084-.846c-.028-.197-.028-.085-.028-.197-.029-.226-.029-.367-.029-.762v-1.3820000000000001s-.818.367-.987.451l-.169.085c-.31.141-.367.17-.451.254-.057.056-.113.113-.31.225 0 0-.903.565-1.326.931v.198c0 .113 0 .253.028.423 0 .084 0 .197.028.31 0 .141.028.282.028.451.029.17.029.085.057.254 0 .113.028.198.028.31v.085c0 .62.254 4.061.395 4.259h.056c.029.31.141.564.254.79.057.084.113.197.141.282.17.282.31.564.367.902 0 .057.028.113.028.17.113.169.17.338.339.479.084.085.14.141.225.198.17.084.367.112.564.14.226.029.423.057.62.085a.5.5 0 0 0 .198-.056c.028 0 .085-.029.113-.029.846-.225 1.974-.676 2.538-1.41l.254-.338c0-.028.029-.028.029-.057.056-.084.197-.338.253-.45-.677.507-1.156.507-1.41.45M42.58 23.665c-.028 0-.253.028-.253.028-.17 0-.254-.056-.254-.056-.226-.198-.423-.762-.48-1.157-.028-.225-.17-1.24-.17-1.269-.027-.141-.027-.395-.056-.733.029-.339.057-.62.057-.875.028-.366.028-.48.113-.902.028-.17.056-.705.056-1.157v-.282h-.056l-.085.029s-.14.084-.17.112c-.055.029-.14.085-.196.113-.254.141-.536.31-.79.48q-.55.38-1.016.761c-.113.085-.197.17-.31.254-.338.282-.677.564-.959.903-.113.112-.395.423-.395.423-1.184 1.1-2.002 1.805-3.074 2.115-.198.056-.31.113-.339.197h-.225c-.085 0-.198 0-.254.029-.056 0-.141.028-.197.028-.085 0-.142-.028-.198-.056a1.2 1.2 0 0 1-.338-.452l-.029-.056c-.14-.367-.282-.733-.31-1.1a5.5 5.5 0 0 1 .226-2.087c.254-.762.536-1.58.987-2.313.423-.762.93-1.439 1.495-2.172a7 7 0 0 1 .423-.48c.056-.084.14-.197.197-.281l.029-.057c.874-1.1 2.312-2.905 3.807-2.877a6 6 0 0 0-.705-.14c-.113 0-.564-.057-.705-.057h-.028c-.254-.028-.508-.057-.705.084-.875.198-1.608.734-2.229 1.213-.874.677-1.805 1.41-2.65 2.228-1.185 1.157-1.975 2.257-2.455 3.47a1.3 1.3 0 0 1-.14.282c-.029.056-.057.113-.085.197-.057.141-.141.282-.198.423-.225.451-.451.96-.592 1.467l-.085.423c-.028.113-.028.226-.056.338-.085.395-.198.79-.282 1.157a.65.65 0 0 0 .197.705c.085.084.141.14.141.282.113.705.395 1.213.931 1.692.028.028.056.057.085.057a.06.06 0 0 1 .056.056c.113.226.31.31.564.31.085 0 .17 0 .31-.028l.085-.028c.113-.113.141-.282.085-.48.056 0-.057-.112-.029-.112.17 0 .508.112.65.112h.027c.113.029.254.029.367.029a.95.95 0 0 0 .564-.17h.226c.451-.028.902-.253 1.297-.45.254-.114.508-.255.734-.311a.9.9 0 0 0 .282-.141c.028-.028.056-.057.113-.057.197-.112.366-.282.535-.45.17-.17.367-.367.564-.452a6 6 0 0 0 .677-.451l.17-.17c.056-.028.084-.084.14-.113.17-.084.34-.14.537-.169v.028c.084.452.282 1.383.282 1.383.028.14.056.282.056.394l.028.113c.028.141.057.31.254.451q.254.213.423.677c.085.282.395.565.818.565.197.056.423.084.649.084q.338 0 .761-.084c.141-.029 1.1-.283 1.72-1.1.085-.085.17-.17.226-.282.17-.282.339-.508.508-.734a2.64 2.64 0 0 1-1.354.649M20.495.846l.029-.028.253-.818c-1.523.564-6.853 2.454-8.8 3.103l-.056.028-.197.846.197-.056c2.03-.677 7.08-2.483 8.574-3.075M72.647 10.973c.395.31 1.072.818 1.439 1.156.31.282-.028-.028.338.17.085.056.17.112.226.197.282.31.423.507.705.225.113-.112.14-.507.084-.648-.31-.649-.056-.649.508-.48.367.113.367-.226.395-.705 0-.056-.028-.31 0-.338.198-.141.62-.339.508-.48-.085-.14-.028-.17-.113-.338-.113-.085-.649-.367-.649-.564a1.04 1.04 0 0 0-.197-.395c-.31-.31-1.016-.762-1.382-.987-.057-.057-.141-.085-.198-.17-.056-.084-.197-.14-.225-.225-.282.084-.31.197-.508.366-.48.48-.818 1.1-1.27 1.608-.14.17-.253.367-.422.536-.085.085-.113.197-.17.282 0 .113-.169.226-.14.338.253.057.62.17.817.31.085.029.17.085.254.142"/><path fill="#BE008D" d="M72.14 22.395c-.057-.056-.085-.17-.113-.254 0-.028-.028-.084-.028-.113-.029-.14-.085-.253-.113-.394-.113-.31-.226-.424-.282-.734-.113-.423-.17-.874-.254-1.325-.028-.226-.085-.424-.113-.65l-.056-.225c-.141-.79-.31-1.58-.367-2.397v-.057a.75.75 0 0 0-.085-.338 2 2 0 0 1-.112-.451v-.029a2.5 2.5 0 0 1-.057-.45c-.028-.255-.085-.509-.085-.762a49 49 0 0 0-.197-1.467c-.056-.367-.113-.677-.113-.79v-.085c0-.169-.028-.338-.084-.45-.057-.114-.085-.311-.113-.621-.028-.226-.028-.48-.028-.705-.029-.367-.029-.762-.085-1.129-.028-.31.028-3.13.056-4.09.029-.676.057-1.269.057-1.466 0-.17-.028-.367-.057-.536-.028-.085 0-.451 0-.451l-.225.084c-.254.029-.62.282-.96.508-.168.113-.338.254-.422.282-.17.085-.423.254-.677.423-.339.226-.733.48-.903.536-.084.028-.338.198-.338.198s.225.14.338.253c.085.085.17.198.17.282-.029.282-.057.79-.057 1.354.028.282 0 1.664.028 2.031-.056.339-.113 1.382-.225 1.89-.198.987-.424 2.087-.48 2.567 0 .028 0 .056-.028.084-.198 2.087-.93 4.316-1.777 6.572 0 .028-.028.056-.028.085-.028.056-.057.14-.085.197-.028.085-.084.17-.113.282a.6.6 0 0 1-.084.141c-.029.056-.057.141-.113.197-.028.029-.028.085-.056.113l-.057.113c-.677 1.326-1.354 2.087-1.777 2.482l-.056.057c-.141.112-.282.169-.395.169-.31 0-.592-.367-.762-.593-.028-.056-.084-.084-.112-.14a1.46 1.46 0 0 1-.339-.537 4.6 4.6 0 0 1-.282-1.861c.056-1.1.31-2.2.705-3.272.17-.451.395-1.043.677-1.607.028-.029.028-.085.056-.113l.029-.085c0-.028.028-.028.028-.056s.028-.057.028-.085c.028-.028.028-.056.056-.113.029-.028.029-.056.057-.084.028-.057.056-.113.113-.17l.056-.084a.6.6 0 0 1 .085-.141l.028-.028c.17-.536 1.41-2.454 2.144-2.595 0 0-.113-.029-.17-.029h-.112c-.31 0-.565.057-.79.17-.198.084-.508.14-.818.225-.423.085-.875.17-1.157.367q-.55.381-1.1.677l-.169.085c-.48.282-.902.705-1.213 1.212-.253.423-.507.903-.45 1.495.027.17-.03.367-.086.536l-.253.846c-.085.31-.198.62-.282.931-.029.141-.057.31-.085.451 0 .057-.028.141-.028.198v.056l.028.028c.141.198.084.423 0 .677-.028.057-.028.141-.056.198v.028c-.029.141-.057.31.028.451-.226.226-.113.48-.029.62l.029.085c.056.141.056.282.084.423.029.17.028.339.085.508.085.198.451.451.536.508.028.028.084.056.14.113-.027.028-.14.197-.197.197-.056.028-.31.17-.423.197-.225.029-.45 0-.648-.084-.029 0-.057-.028-.085-.056-.028 0-.028-.029-.056-.029-.029-.028-.057-.028-.085-.056-.028 0-.028-.028-.056-.028l-.085-.085c0-.028-.028-.028-.028-.056-.028-.057-.085-.085-.113-.141-.028-.029-.056-.057-.113-.085-.17-.17-.31-.367-.395-.564-.028-.085-.028-.141-.028-.226a1.8 1.8 0 0 1-.226-.536c-.056-.31-.14-.592-.225-.874a7 7 0 0 1-.254-1.1 34 34 0 0 0-.085-.62 13 13 0 0 0-.113-.875c-.028-.113-.028-.197-.056-.282a4 4 0 0 1-.084-.48c-.029-.225-.057-.394-.085-.62a28 28 0 0 0-.113-.733 4 4 0 0 0-.056-.367l-.029-.14c-.028-.114-.028-.198-.056-.311a3.8 3.8 0 0 1-.085-.79v-.367c0-.394 0-.818-.028-1.128l-.028-.367s-.818.395-1.015.536c-.057.029-.085.057-.141.085-.48.282-.677.395-1.157.592l-.17.085c-.337.17-.535.254-.591.31l-.057.028v.17c0 .056.028.113.028.169l.029.197c0 .057.028.113.028.17v.112c0 .057.028.452.028.565.056 1.269.226 3.3.451 5.443v.085c.113.846.113.874.141.902l.17.254c.028.028.028.056.056.085.141.254.31.564.677.677 0 0 .056.028.084.084.198.339.395.705.536 1.016.198.366.48.677.847.959q.127.084.253.084h.395c.029 0 .085.028.113.057q.085.084.254.084h.056c.113 0 .198 0 .31.028.113 0 .226.029.34.029.14 0 .253 0 .366-.029.451-.084.818-.282 1.072-.536.169-.169.366-.31.564-.45.028-.029.056-.029.084-.057.085-.057.17-.113.226-.17.056-.056.14-.084.226-.14.084-.057.14-.085.225-.141.057-.057.085-.113.141-.17.17.113.282.226.31.31.085.283.254.396.452.508.197.113.451.198.677.282.084.029.48.028.536.028.338 0 .45-.028.507-.056h.057c.395-.056.846-.254.902-.282.818-.338 1.467-1.015 1.918-1.438l.339-.339c.056-.056.14-.113.197-.197.536-.62 1.1-1.326 1.551-2.116.029-.056.057-.084.085-.14.113-.198.254-.452.282-.706.17-.056.226-.169.226-.254s.028-.197.028-.282.028-.169.028-.282c.028-.056.226-.48.423-.93l.028.028v.113c-.028.14.029.253.057.366.028.057.028.113.056.17.028.112.451.874.48.958.028.17.056.339.14.508a.2.2 0 0 1 .057.113.4.4 0 0 1 .056.197c.029.141.085.31.198.423a.26.26 0 0 0 0 .254v.028c.113.424.226.79.338 1.157l.085.254c.056.197.113.395.141.592.028.367.141.677.254.987.113.028.17.113.17.282v.057c.168.197.366.423.591.592.029.028.057.056.085.056.113.029.254.057.367.085.084.028.14.028.225.056.226 0 .452-.056.706-.056l.169-.056v-.029c.084-.028.225-.112.507-.225.029-.028.085-.028.085-.028q.254-.212.508-.339c.31-.197.874-1.128.959-1.185.056-.056.197-.197.197-.253 0-.113.057-.198.113-.254l.028-.029c-.31.395-1.184.593-1.382.593-.254.056-.564-.17-.62-.254M79.952 24.51c-.029-.027-.057-.056-.113-.084-.028 0-.057 0-.113-.028-.423.028-.959-.226-1.156-.451-.198-.226-1.016-3.244-1.157-3.667-.056-.17-.14-.733-.197-.846a1.3 1.3 0 0 1-.17-.451c0-.113-.225-1.213-.225-1.383 0-.14-.028-.253-.028-.394-.029-.31-.226-1.75-.254-2.06a3.5 3.5 0 0 1-.057-.564v-.056c.029-.31.029-.423-.028-.48l-.028-.056h-.056c-.085 0-.254.085-.706.31-.14.085-.338.17-.394.198-.395.113-.903.31-1.213.451-.17.085-.931.395-.931.395.113.113.508.395.508.395.112.282.084 2.962.084 3.018.141.818.536 2.2.62 2.538.029.057.029.085.029.085s.141.592.197.902c.057.057.085.113.113.142.113.197.17.93.226 1.156.113.367.282.705.338 1.1.48.592.987 1.156 1.777 1.27.17.027.339.027.508.027.056-.028.113-.028.17-.056.45-.141.845-.31 1.24-.508.226-.113.423-.225.592-.366.029-.029.085-.057.113-.113.198-.057.282-.198.31-.423q0 .042 0 0"/><path fill="#BE008D" d="m55.95 21.915-.03-.226c0 .057 0 .142.03.226M58.855 27.866l-.198.733.198-.056c1.748-.564 6.036-2.116 7.305-2.623l.028-.029.197-.733c-1.297.48-5.81 2.087-7.502 2.651zM51.69 9.477c-.084-.028-.338-.112-.45-.14h-.057l.028-.057c.056-.17.085-.367.085-.564 0-1.41-.621-1.89-1.129-1.89-.423 0-.874.198-1.212.536-.395.367-.593.818-.593 1.298 0 .733.508 1.156 1.608 1.353l.113.029-.085.056c-.733.564-2.708 1.354-3.949 1.861l-.338.142.338.084c.282.057.79.113 1.044.113h.056c.508-.17 2.793-1.072 3.61-2.087l.029-.028h.028c.056.028.282.112.367.14l.084.029.593-.818zm-.987-.253-.028.056h-.056c-1.185-.226-1.834-.649-1.834-1.128 0-.31.452-.649.875-.649.48 0 1.043.62 1.043 1.467.057.084.028.169 0 .254M7.098 13.594a8 8 0 0 1 1.128-.169c.17-.028.338-.028.508-.028.084 0 .677-.141 1.015-.085 2.228-1.325 5.133-2.651 8.039-3.948 1.128-.48 2.03-.734 3.44-1.326.508-.056 2.85-1.467 2.962-.762.197.282.536.536.536.536.733-1.24.93-1.777 1.297-2.905.424-1.325 1.016-1.89 1.213-3.356-.366.028-.93.395-1.184.536-.62.282-1.326.592-2.003.93-1.636.677-3.328.931-4.964 1.495-.564.113-.733.31-1.241.395-.141.17-.536.254-.762.254-.48.17-.846.282-1.325.564-.367-.056-.734.395-1.213.31-.564.282-2.228 1.1-3.046 1.157-.395.028-1.636.423-2.172.507-.197.085-.113.254-.254.395-.395 1.58-1.1 2.539-1.72 4.09-.057.592-.565 1.241-.254 1.41M28.985 17.403c.029-.141.085-.282.113-.423v-.057c-.48.734-1.1 1.523-2.172 2.51v.029l-.338.338c-1.1 1.185-2.313 2.116-3.61 3.046-.593.62-1.27 1.072-2.06 1.439-1.579.93-3.3 1.523-4.992 2.2-.45.197-.818.056-1.043.564-.028-.028-.057-.056-.085-.056-.761.084-1.833.253-2.454.733.818.987 2.398-.79 3.244.056-.31.367-.79.423-1.185.677-.254-.084-.48.085-.705.141-.395.113-1.072.226-1.466.339-1.383.056-2.736.366-4.118.282-6.206-.395-8.236-5.246-6.036-10.69.282-.592.62-1.128.987-1.692-.254-.367-1.128 1.015-1.382 1.382-2.031 3.723-2.793 8.574 1.015 11.48.113.056.282.112.367.168.113-.084.197-.14.225-.169.113-.084.113-.056.621.198 2.059.987 4.682 1.071 6.995.705.17 0 .31-.028.48-.028.225.084.45-.029.648-.085.085-.028.197-.028.31-.056h.029c.648-.142 1.297-.226 1.692-.818.226.056.423.169.62 0 .903-.198 1.75-.536 2.595-.931.226-.028.282.17.536.14 4.654-1.945 8.998-5.273 10.662-10.238v-.028c.084-.197.169-.395.225-.592v-.028c0-.029 0-.057.029-.057.14-.169.197-.31.253-.48-.028.029-.028 0 0 0"/></svg>